The.Host.2013.TS.XViD-26k

 
http://www.imdb.com/title/tt1517260/


Plot:

When an unseen enemy threatens mankind by taking over their bodies and erasing their memories, Melanie
will risk everything to protect the people she cares most about, proving that love can conquer all in a
dangerous new world.



Sources - VIDEO: BEOWULF ..... thanks ....
         AUDIO: MiLLENiUM ..... thanks ....


         


Format                                   : AVI
Format/Info                              : Audio Video Interleave
File size                                : 1.37 GiB
Duration                                 : 1h 51mn
Overall bit rate                         : 1 756 Kbps
Writing application                      : Nandub v1.0rc2
Writing library                          : VirtualDub build 32839/release

Video
ID                                       : 0
Format                                   : MPEG-4 Visual
Format profile                           : Advanced Simple@L5
Format settings, BVOP                    : 2
Format settings, QPel                    : No
Format settings, GMC                     : No warppoints
Format settings, Matrix                  : Default (H.263)
Muxing mode                              : Packed bitstream
Codec ID                                 : XVID
Codec ID/Hint                            : XviD
Duration                                 : 1h 51mn
Bit rate                                 : 1 618 Kbps
Width                                    : 720 pixels
Height                                   : 288 pixels
Display aspect ratio                     : 2.500
Frame rate                               : 25.000 fps
Color space                              : YUV
Chroma subsampling                       : 4:2:0
Bit depth                                : 8 bits
Scan type                                : Progressive
Compression mode                         : Lossy
Bits/(Pixel*Frame)                       : 0.312
Stream size                              : 1.26 GiB (92%)
Writing library                          : XviD 64

Audio
ID                                       : 1
Format                                   : MPEG Audio
Format version                           : Version 1
Format profile                           : Layer 3
Mode                                     : Joint stereo
Mode extension                           : MS Stereo
Codec ID                                 : 55
Codec ID/Hint                            : MP3
Duration                                 : 1h 51mn
Bit rate mode                            : Constant
Bit rate                                 : 128 Kbps
Channel(s)                               : 2 channels
Sampling rate                            : 48.0 KHz
Compression mode                         : Lossy
Stream size                              : 102 MiB (7%)
Alignment                                : Split accross interleaves
Interleave, duration                     : 40 ms (1.00 video frame)
Writing library                          : LAME3.98r
Encoding settings                        : -m j -V 4 -q 3 -lowpass 17 -b 128








Notes -

BEOWULF vid was nice just need slight cleanign and rgb adjustment then just muxed MiLLENiUM's
nice LiNE to it.. enjoy til better comes along ;P

and yes like MiLLENiUM said it is missign a few minutes bout 35 min in i think



Screens:
 
http://i.imgur.com/si5jhiR.jpg 
http://i.imgur.com/Mu34udJ.jpg 
http://i.imgur.com/xqPWBcI.jpg 
http://i.imgur.com/K2i9jx2.jpg
